<svg viewBox="0 0 700 560" xmlns="http://www.w3.org/2000/svg" style="background:#ffffff;">
  <defs>
    <style>
      .heavy { stroke:#111; stroke-width:2.2; fill:none; }
      .medium { stroke:#111; stroke-width:1.4; fill:none; }
      .light { stroke:#111; stroke-width:0.7; fill:none; }
      .xlight { stroke:#666; stroke-width:0.5; fill:none; stroke-dasharray:4,3; }
      .hatch { stroke:#555; stroke-width:0.4; fill:none; }
      .dim { stroke:#888; stroke-width:0.5; fill:none; }
      .dimtext { font-family:'Courier New',Courier,monospace; font-size:9px; fill:#555; letter-spacing:0.5; }
      .label { font-family:'Courier New',Courier,monospace; font-size:8.5px; fill:#333; letter-spacing:0.6; }
      .brand { font-family:'Helvetica Neue',Arial,sans-serif; font-size:11px; fill:#111; letter-spacing:1.5; }
    </style>
  </defs>

  <!-- white background -->
  <rect width="700" height="560" fill="#ffffff"/>

  <!-- thin border -->
  <rect x="18" y="18" width="664" height="524" fill="none" stroke="#ccc" stroke-width="0.8"/>

  <!-- title block bottom right -->
  <rect x="490" y="480" width="192" height="58" fill="none" stroke="#aaa" stroke-width="0.7"/>
  <line x1="490" y1="498" x2="682" y2="498" stroke="#aaa" stroke-width="0.7"/>
  <line x1="580" y1="498" x2="580" y2="538" stroke="#aaa" stroke-width="0.7"/>
  <text x="498" y="493" class="dimtext" style="font-size:8px;fill:#777">TITLE</text>
  <text x="498" y="510" class="dimtext" style="font-size:9px;fill:#222;font-weight:bold">eufyMake E1</text>
  <text x="498" y="521" class="dimtext" style="font-size:8px;fill:#444">UV PRINTER</text>
  <text x="498" y="532" class="dimtext" style="font-size:8px;fill:#555">LINE DRAWING</text>
  <text x="584" y="510" class="dimtext" style="font-size:8px;fill:#777">SCALE</text>
  <text x="584" y="521" class="dimtext" style="font-size:9px;fill:#222">1:1 REF</text>
  <text x="584" y="532" class="dimtext" style="font-size:8px;fill:#555">3/4 VIEW</text>

  <!-- ═══════════════════════════════════════════
       ISOMETRIC 3/4 VIEW — left-front facing
       Machine bounding box approx:
         Front face:   x=130..530, y=140..440
         Top face:     skewed back-right
         Right face:   skewed down-right
  ════════════════════════════════════════════ -->

  <!-- ── TOP FACE ── -->
  <!-- polygon: front-left, front-right, back-right, back-left -->
  <polygon points="130,140 530,140 575,105 175,105" class="heavy"/>
  <!-- top face centerline (hidden) -->
  <line x1="352" y1="105" x2="352" y2="140" class="xlight"/>

  <!-- Top surface details -->
  <!-- Print head carriage track (long slot across top) -->
  <rect x="205" y="112" width="320" height="18" rx="3" class="medium"/>
  <!-- Carriage block sitting in track -->
  <rect x="340" y="114" width="55" height="14" rx="2" class="light"/>
  <!-- Small detail lines on carriage -->
  <line x1="350" y1="116" x2="350" y2="126" class="light"/>
  <line x1="360" y1="116" x2="360" y2="126" class="light"/>
  <line x1="370" y1="116" x2="370" y2="126" class="light"/>
  <line x1="380" y1="116" x2="380" y2="126" class="light"/>

  <!-- Ink cartridge bay (left of top) -->
  <rect x="175" y="111" width="26" height="20" rx="2" class="medium"/>
  <!-- Bay detail -->
  <line x1="178" y1="114" x2="178" y2="129" class="light"/>
  <line x1="182" y1="114" x2="182" y2="129" class="light"/>
  <line x1="186" y1="114" x2="186" y2="129" class="light"/>
  <line x1="190" y1="114" x2="190" y2="129" class="light"/>
  <line x1="194" y1="114" x2="194" y2="129" class="light"/>
  <!-- Bay lid line -->
  <line x1="175" y1="118" x2="201" y2="118" class="light"/>

  <!-- Power / control button top-right area -->
  <circle cx="549" cy="114" r="5" class="medium"/>
  <!-- LED indicator small -->
  <rect x="538" y="111" width="7" height="5" rx="1" class="light"/>

  <!-- Air vent strip top-back -->
  <g class="xlight">
    <line x1="220" y1="107" x2="530" y2="107" />
    <line x1="220" y1="109.5" x2="530" y2="109.5"/>
  </g>

  <!-- ── RIGHT SIDE FACE ── -->
  <polygon points="530,140 575,105 575,405 530,440" class="heavy"/>
  <!-- Side panel crease line -->
  <line x1="530" y1="195" x2="575" y2="160" class="light"/>
  <!-- Vent slots on right side — 14 horizontal slots -->
  <g class="light">
    <line x1="535" y1="175" x2="568" y2="150"/><line x1="535" y1="183" x2="568" y2="158"/>
    <line x1="535" y1="191" x2="568" y2="166"/><line x1="535" y1="199" x2="568" y2="174"/>
    <line x1="535" y1="207" x2="568" y2="182"/><line x1="535" y1="215" x2="568" y2="190"/>
    <line x1="535" y1="223" x2="568" y2="198"/><line x1="535" y1="231" x2="568" y2="206"/>
    <line x1="535" y1="239" x2="568" y2="214"/><line x1="535" y1="247" x2="568" y2="222"/>
    <line x1="535" y1="255" x2="568" y2="230"/><line x1="535" y1="263" x2="568" y2="238"/>
    <line x1="535" y1="271" x2="568" y2="246"/><line x1="535" y1="279" x2="568" y2="254"/>
  </g>
  <!-- Port on lower right side -->
  <rect x="556" y="370" width="12" height="9" rx="1" class="light" transform="skewY(-26)"/>
  <!-- Status LED on right -->
  <circle cx="561" cy="358" r="2.5" class="light" transform="skewY(-26)"/>

  <!-- ── FRONT FACE ── -->
  <rect x="130" y="140" width="400" height="300" class="heavy"/>

  <!-- Front top ledge / seam line (where body color changes) -->
  <line x1="130" y1="175" x2="530" y2="175" class="medium"/>

  <!-- Front face subtle panel division -->
  <line x1="130" y1="385" x2="530" y2="385" class="medium"/>

  <!-- ── PRINT WINDOW / DOOR ── -->
  <!-- Outer frame of door -->
  <rect x="160" y="185" width="342" height="188" rx="5" class="heavy"/>
  <!-- Inner glass/window edge -->
  <rect x="168" y="193" width="326" height="172" rx="3" class="light"/>
  <!-- Corner radius indicators -->
  <circle cx="165" cy="190" r="5" class="xlight"/>
  <circle cx="497" cy="190" r="5" class="xlight"/>
  <circle cx="165" cy="369" r="5" class="xlight"/>
  <circle cx="497" cy="369" r="5" class="xlight"/>
  <!-- Door centerline (vertical) -->
  <line x1="331" y1="185" x2="331" y2="373" class="xlight"/>
  <!-- Door centerline (horizontal) -->
  <line x1="160" y1="279" x2="502" y2="279" class="xlight"/>

  <!-- Door hinge indicator (left edge) -->
  <line x1="160" y1="210" x2="155" y2="210" class="light"/>
  <line x1="160" y1="348" x2="155" y2="348" class="light"/>
  <circle cx="155" cy="210" r="3" class="light"/>
  <circle cx="155" cy="348" r="3" class="light"/>
  <!-- Hinge label callout -->
  <line x1="152" y1="279" x2="120" y2="279" class="dim"/>
  <circle cx="120" cy="279" r="1.5" fill="#888"/>
  <text x="34" y="282" class="dimtext">HINGE</text>

  <!-- Print platform / bed visible through glass -->
  <!-- Dashed lines since it's interior visible -->
  <rect x="200" y="330" width="262" height="24" rx="2" stroke="#555" stroke-width="0.8" fill="none" stroke-dasharray="5,3"/>
  <!-- Platform guide rails -->
  <line x1="200" y1="335" x2="462" y2="335" stroke="#777" stroke-width="0.5" stroke-dasharray="3,3"/>
  <line x1="200" y1="348" x2="462" y2="348" stroke="#777" stroke-width="0.5" stroke-dasharray="3,3"/>
  <!-- Platform label -->
  <line x1="331" y1="354" x2="331" y2="368" class="dim"/>
  <text x="310" y="366" class="dimtext" style="font-size:7.5px">PRINT BED</text>

  <!-- UV lamp bar (top inside door, dashed = internal) -->
  <rect x="218" y="200" width="226" height="10" rx="4" stroke="#555" stroke-width="0.7" fill="none" stroke-dasharray="4,3"/>
  <!-- UV lamp label -->
  <line x1="218" y1="200" x2="200" y2="187" class="dim"/>
  <text x="135" y="186" class="dimtext" style="font-size:7.5px">UV LAMP</text>

  <!-- ── DOOR HANDLE ── -->
  <rect x="239" y="378" width="184" height="20" rx="10" class="heavy"/>
  <!-- Handle grip detail -->
  <rect x="285" y="381" width="92" height="14" rx="7" class="light"/>
  <!-- Grip serrations -->
  <line x1="300" y1="382" x2="300" y2="394" class="light"/>
  <line x1="310" y1="382" x2="310" y2="394" class="light"/>
  <line x1="320" y1="382" x2="320" y2="394" class="light"/>
  <line x1="330" y1="382" x2="330" y2="394" class="light"/>
  <line x1="340" y1="382" x2="340" y2="394" class="light"/>
  <line x1="350" y1="382" x2="350" y2="394" class="light"/>
  <line x1="360" y1="382" x2="360" y2="394" class="light"/>
  <!-- Handle callout -->
  <line x1="423" y1="388" x2="460" y2="388" class="dim"/>
  <circle cx="460" cy="388" r="1.5" fill="#888"/>
  <text x="463" y="391" class="dimtext">HANDLE</text>

  <!-- ── LOWER CONTROL STRIP ── -->
  <!-- Power button -->
  <circle cx="485" cy="420" r="10" class="medium"/>
  <!-- Power symbol -->
  <line x1="485" y1="413" x2="485" y2="418" stroke="#333" stroke-width="1.5"/>
  <path d="M480.5,414.5 a7,7 0 1,1 9,0" fill="none" stroke="#333" stroke-width="1.3"/>
  <!-- Power button callout -->
  <line x1="495" y1="420" x2="520" y2="420" class="dim"/>
  <circle cx="520" cy="420" r="1.5" fill="#888"/>
  <text x="523" y="423" class="dimtext">PWR</text>

  <!-- Status LEDs row -->
  <circle cx="430" cy="420" r="3.5" class="light"/>
  <circle cx="445" cy="420" r="3.5" class="light"/>
  <circle cx="460" cy="420" r="3.5" class="light"/>

  <!-- ── BRAND TEXT ── -->
  <text x="163" y="425" class="brand">eufy Make</text>

  <!-- ── BOTTOM FACE ── -->
  <!-- Front bottom edge to ground -->
  <line x1="130" y1="440" x2="530" y2="440" class="heavy"/>
  <polygon points="130,440 175,405 575,405 530,440" class="heavy"/>
  <!-- Bottom face center line -->
  <line x1="352" y1="405" x2="352" y2="440" class="xlight"/>

  <!-- Rubber feet — 4 feet, seen in bottom face perspective -->
  <!-- Front-left foot -->
  <ellipse cx="168" cy="437" rx="11" ry="5" class="medium"/>
  <line x1="157" y1="437" x2="157" y2="445" class="light"/>
  <line x1="179" y1="437" x2="179" y2="445" class="light"/>
  <line x1="157" y1="445" x2="179" y2="445" class="medium"/>
  <!-- Front-right foot -->
  <ellipse cx="490" cy="437" rx="11" ry="5" class="medium"/>
  <line x1="479" y1="437" x2="479" y2="445" class="light"/>
  <line x1="501" y1="437" x2="501" y2="445" class="light"/>
  <line x1="479" y1="445" x2="501" y2="445" class="medium"/>
  <!-- Back-left foot (in bottom polygon) -->
  <ellipse cx="225" cy="418" rx="10" ry="4" class="light"/>
  <!-- Back-right foot -->
  <ellipse cx="520" cy="418" rx="10" ry="4" class="light"/>
  <!-- Feet callout -->
  <line x1="168" y1="445" x2="130" y2="465" class="dim"/>
  <circle cx="130" cy="465" r="1.5" fill="#888"/>
  <text x="34" y="468" class="dimtext">RUBBER FOOT</text>
  <text x="40" y="477" class="dimtext">(×4 TOTAL)</text>

  <!-- ════════════════════
       DIMENSION LINES
  ═══════════════════════ -->

  <!-- Width dimension (top) -->
  <line x1="130" y1="85" x2="530" y2="85" class="dim"/>
  <line x1="130" y1="80" x2="130" y2="90" class="dim"/>
  <line x1="530" y1="80" x2="530" y2="90" class="dim"/>
  <!-- arrowheads -->
  <polygon points="130,85 138,82 138,88" fill="#888"/>
  <polygon points="530,85 522,82 522,88" fill="#888"/>
  <text x="295" y="82" text-anchor="middle" class="dimtext">320 mm</text>

  <!-- Height dimension (right) -->
  <line x1="598" y1="140" x2="598" y2="440" class="dim"/>
  <line x1="593" y1="140" x2="603" y2="140" class="dim"/>
  <line x1="593" y1="440" x2="603" y2="440" class="dim"/>
  <polygon points="598,140 595,148 601,148" fill="#888"/>
  <polygon points="598,440 595,432 601,432" fill="#888"/>
  <text x="617" y="293" text-anchor="middle" class="dimtext" transform="rotate(90,617,293)">298 mm</text>

  <!-- Depth dimension (diagonal top) -->
  <line x1="175" y1="78" x2="575" y2="78" class="dim" stroke-dasharray="none"/>
  <line x1="175" y1="73" x2="175" y2="83" class="dim"/>
  <line x1="575" y1="73" x2="575" y2="83" class="dim"/>
  <polygon points="175,78 183,75 183,81" fill="#888"/>
  <polygon points="575,78 567,75 567,81" fill="#888"/>
  <text x="375" y="75" text-anchor="middle" class="dimtext">320 mm (DEPTH)</text>

  <!-- ═══════════════════
       CALLOUT LEADERS
  ═══════════════════════ -->

  <!-- Top slot (print head track) -->
  <line x1="365" y1="112" x2="365" y2="70" class="dim"/>
  <line x1="365" y1="70" x2="430" y2="70" class="dim"/>
  <circle cx="365" cy="121" r="1.5" fill="#888"/>
  <text x="432" y="73" class="dimtext">PRINT HEAD TRACK</text>

  <!-- Ink bay -->
  <line x1="188" y1="111" x2="188" y2="68" class="dim"/>
  <line x1="188" y1="68" x2="100" y2="68" class="dim"/>
  <circle cx="188" cy="120" r="1.5" fill="#888"/>
  <text x="34" y="72" class="dimtext">INK CARTRIDGE</text>
  <text x="46" y="81" class="dimtext">ACCESS BAY</text>

  <!-- Door frame -->
  <line x1="502" y1="280" x2="555" y2="280" class="dim"/>
  <circle cx="502" cy="280" r="1.5" fill="#888"/>
  <text x="557" y="283" class="dimtext">DOOR FRAME</text>

  <!-- Vent callout -->
  <line x1="553" y1="215" x2="590" y2="200" class="dim"/>
  <circle cx="553" cy="215" r="1.5" fill="#888"/>
  <text x="592" y="203" class="dimtext">COOLING VENTS</text>

  <!-- Window glass -->
  <line x1="168" y1="193" x2="135" y2="180" class="dim"/>
  <circle cx="168" cy="193" r="1.5" fill="#888"/>
  <text x="34" y="183" class="dimtext">GLASS PANEL</text>

  <!-- ═══════════════════
       SECTION INDICATORS
  ═══════════════════════ -->
  <!-- A-A section cut indicator -->
  <line x1="80" y1="140" x2="80" y2="440" stroke="#aaa" stroke-width="0.6" stroke-dasharray="8,4"/>
  <circle cx="80" cy="138" r="8" fill="none" stroke="#999" stroke-width="0.7"/>
  <text x="80" y="142" text-anchor="middle" class="dimtext" style="fill:#666">A</text>
  <circle cx="80" cy="442" r="8" fill="none" stroke="#999" stroke-width="0.7"/>
  <text x="80" y="446" text-anchor="middle" class="dimtext" style="fill:#666">A</text>
  <!-- Direction arrows for A-A -->
  <polygon points="68,290 76,286 76,294" fill="#aaa"/>
  <polygon points="92,290 84,286 84,294" fill="#aaa"/>

</svg>
