<svg xmlns="http://www.w3.org/2000/svg" viewBox="0 0 1024 350" width="1024" height="350" role="img" aria-label="mag&#183;na&#183;mat" shape-rendering="geometricPrecision" text-rendering="geometricPrecision">
<title>mag&#183;na&#183;mat</title>
<rect width="100%" height="100%" fill="#ffffff"/>
<circle cx="383.170" cy="188.056" r="21.183" fill="#e9413d"/>
<circle cx="630.136" cy="186.660" r="21.316" fill="#40b0ef"/>
<path fill="#040404" fill-rule="evenodd" stroke="none" d="M619.000,184.000L619.000,189.000L621.000,190.000L631.000,190.000L632.000,189.000L640.000,190.000L641.000,189.000L641.000,184.000Z M381.000,176.000L380.000,177.000L380.000,184.000L379.000,185.000L371.000,185.000L371.000,190.000L378.000,190.000L380.000,192.000L380.000,199.000L385.000,199.000L385.000,192.000L387.000,190.000L394.000,190.000L394.000,185.000L386.000,185.000L385.000,184.000L385.000,176.000Z M776.000,156.000L776.000,170.000L777.000,171.000L835.000,171.000L840.000,176.000L839.000,180.000L791.000,180.000L783.000,184.000L777.000,193.000L776.000,201.000L779.000,210.000L784.000,215.000L790.000,218.000L855.000,218.000L855.000,174.000L853.000,168.000L846.000,160.000L837.000,156.000Z M791.000,198.000L794.000,195.000L839.000,195.000L841.000,197.000L841.000,202.000L839.000,204.000L795.000,204.000L792.000,202.000Z M669.000,156.000L669.000,218.000L683.000,218.000L683.000,172.000L684.000,171.000L708.000,171.000L709.000,172.000L709.000,218.000L723.000,218.000L723.000,172.000L724.000,171.000L743.000,171.000L745.000,172.000L749.000,179.000L749.000,218.000L763.000,218.000L763.000,173.000L759.000,165.000L751.000,158.000L745.000,156.000Z M514.000,157.000L514.000,170.000L515.000,171.000L573.000,171.000L578.000,176.000L577.000,180.000L529.000,180.000L521.000,184.000L515.000,193.000L514.000,200.000L516.000,208.000L522.000,215.000L528.000,218.000L593.000,218.000L593.000,173.000L589.000,165.000L584.000,160.000L575.000,156.000L515.000,156.000Z M529.000,199.000L532.000,195.000L578.000,195.000L579.000,196.000L579.000,202.000L577.000,204.000L533.000,204.000L530.000,202.000Z M423.000,156.000L423.000,218.000L437.000,218.000L437.000,172.000L438.000,171.000L481.000,171.000L483.000,172.000L487.000,177.000L487.000,218.000L502.000,218.000L502.000,175.000L499.000,167.000L495.000,162.000L484.000,156.000Z M275.000,162.000L272.000,166.000L268.000,176.000L268.000,198.000L273.000,210.000L285.000,218.000L331.000,218.000L332.000,222.000L328.000,227.000L325.000,228.000L268.000,228.000L268.000,242.000L269.000,243.000L327.000,243.000L337.000,239.000L343.000,233.000L347.000,224.000L347.000,156.000L287.000,156.000L283.000,157.000Z M284.000,175.000L289.000,171.000L331.000,171.000L332.000,172.000L332.000,199.000L333.000,200.000L332.000,201.000L332.000,203.000L331.000,204.000L290.000,204.000L288.000,203.000L283.000,197.000L283.000,178.000L284.000,177.000Z M177.000,156.000L177.000,171.000L235.000,171.000L240.000,176.000L239.000,180.000L191.000,180.000L186.000,182.000L180.000,188.000L177.000,194.000L177.000,205.000L183.000,214.000L190.000,218.000L255.000,218.000L255.000,173.000L251.000,165.000L246.000,160.000L237.000,156.000Z M192.000,197.000L194.000,195.000L240.000,195.000L241.000,196.000L241.000,202.000L239.000,204.000L195.000,204.000L192.000,201.000Z M69.000,156.000L69.000,218.000L84.000,218.000L84.000,172.000L85.000,171.000L108.000,171.000L109.000,172.000L109.000,218.000L124.000,218.000L124.000,172.000L125.000,171.000L144.000,171.000L149.000,176.000L149.000,218.000L164.000,218.000L164.000,175.000L161.000,167.000L155.000,160.000L146.000,156.000Z M867.000,156.000L867.000,170.000L868.000,171.000L890.000,171.000L891.000,172.000L891.000,199.000L894.000,207.000L899.000,213.000L908.000,218.000L946.000,218.000L946.000,204.000L913.000,204.000L906.000,197.000L906.000,172.000L907.000,171.000L946.000,171.000L946.000,156.000L907.000,156.000L906.000,155.000L906.000,140.000L891.000,140.000L891.000,155.000L890.000,156.000Z"/>
</svg>